Coordinates
version=1
nRows=43
nColumns=12
inDegrees=yes

Units are S.I. units (second, meters, Newtons, ...)
Angles are in degrees

endheader
time	SC_y	SC_z	SC_x	AC_y	AC_z	AC_x	GH_y	GH_z	GH_yy	EL_x	PS_y
       0.0              -31.79          16.68          9.835          61.23         -18.29         -14.07          111.3         -5.644          -19.0          17.98           37.0
  0.008339              -31.79          16.68          9.838          61.23         -18.29         -14.07          111.3         -5.632         -18.99          17.98          37.01
   0.01668              -31.79          16.67          9.841          61.23         -18.29         -14.07          111.3          -5.62         -18.97          17.98          37.03
   0.02502              -31.79          16.67          9.845          61.22         -18.29         -14.07          111.3         -5.607         -18.95          17.98          37.05
   0.03335              -31.79          16.67          9.849          61.22         -18.29         -14.07          111.4         -5.593         -18.93          17.99          37.07
   0.04169              -31.79          16.67          9.853          61.22         -18.29         -14.07          111.4         -5.578         -18.91          17.99          37.09
   0.05003              -31.78          16.67          9.858          61.22         -18.29         -14.07          111.4         -5.562         -18.89          17.99          37.11
   0.05837              -31.78          16.66          9.863          61.21         -18.29         -14.07          111.4         -5.545         -18.87           18.0          37.13
   0.06671              -31.78          16.66          9.868          61.21         -18.28         -14.07          111.4         -5.527         -18.84           18.0          37.16
   0.07505              -31.78          16.66          9.873          61.21         -18.28         -14.07          111.4         -5.508         -18.82           18.0          37.18
   0.08339              -31.78          16.65          9.879           61.2         -18.28         -14.07          111.4         -5.487         -18.79          18.01          37.21
   0.09173              -31.78          16.65          9.886           61.2         -18.28         -14.07          111.5         -5.464         -18.76          18.01          37.24
    0.1001              -31.77          16.65          9.893          61.19         -18.28         -14.07          111.5          -5.44         -18.73          18.02          37.28
    0.1084              -31.77          16.64            9.9          61.19         -18.28         -14.07          111.5         -5.414         -18.69          18.02          37.31
    0.1167              -31.77          16.64          9.908          61.18         -18.27         -14.08          111.5         -5.386         -18.65          18.03          37.35
    0.1251              -31.77          16.64          9.917          61.18         -18.27         -14.08          111.5         -5.355         -18.61          18.04           37.4
    0.1334              -31.76          16.63          9.927          61.17         -18.27         -14.08          111.6         -5.322         -18.57          18.04          37.44
    0.1418              -31.76          16.62          9.937          61.17         -18.26         -14.08          111.6         -5.286         -18.52          18.05          37.49
    0.1501              -31.76          16.62          9.948          61.16         -18.26         -14.08          111.6         -5.246         -18.46          18.06          37.55
    0.1584              -31.75          16.61          9.961          61.15         -18.26         -14.08          111.7         -5.202         -18.41          18.07          37.61
    0.1668              -31.75          16.61          9.974          61.14         -18.25         -14.08          111.7         -5.155         -18.34          18.08          37.67
    0.1751              -31.75           16.6          9.989          61.13         -18.25         -14.08          111.7         -5.102         -18.27          18.09          37.75
    0.1835              -31.74          16.59          10.01          61.12         -18.25         -14.08          111.8         -5.044         -18.19           18.1          37.83
    0.1918              -31.73          16.58          10.02          61.11         -18.24         -14.08          111.8          -4.98          -18.1          18.11          37.92
    0.2001              -31.73          16.57          10.04           61.1         -18.23         -14.08          111.9         -4.909         -18.01          18.13          38.01
    0.2085              -31.72          16.56          10.07          61.09         -18.23         -14.08          112.0         -4.829          -17.9          18.15          38.13
    0.2168              -31.71          16.54          10.09          61.07         -18.22         -14.08          112.0          -4.74         -17.78          18.16          38.25
    0.2251              -31.71          16.53          10.12          61.05         -18.21         -14.08          112.1         -4.639         -17.64          18.18          38.39
    0.2335               -31.7          16.51          10.15          61.03          -18.2         -14.08          112.2         -4.526         -17.49          18.21          38.55
    0.2418              -31.68          16.49          10.19          61.01         -18.19         -14.09          112.3         -4.397         -17.31          18.23          38.72
    0.2502              -31.67          16.47          10.23          60.99         -18.18         -14.09          112.4          -4.25         -17.12          18.27          38.93
    0.2585              -31.66          16.44          10.28          60.96         -18.17         -14.09          112.5         -4.082         -16.89           18.3          39.16
    0.2668              -31.64          16.41          10.34          60.92         -18.15         -14.09          112.7         -3.887         -16.62          18.34          39.43
    0.2752              -31.62          16.38           10.4          60.88         -18.13         -14.09          112.9          -3.66         -16.32          18.39          39.75
    0.2835               -31.6          16.34          10.48          60.84         -18.11          -14.1          113.1         -3.396         -15.96          18.44          40.11
    0.2919              -31.57          16.29          10.57          60.78         -18.08          -14.1          113.3         -3.084         -15.53          18.51          40.55
    0.3002              -31.54          16.24          10.67          60.72         -18.05          -14.1          113.6         -2.713         -15.03          18.58          41.06
    0.3085               -31.5          16.17           10.8          60.64         -18.02         -14.11          114.0         -2.268         -14.43          18.68          41.68
    0.3169              -31.45          16.09          10.95          60.54         -17.97         -14.12          114.4          -1.73          -13.7          18.79          42.43
    0.3252               -31.4          15.99          11.14          60.43         -17.92         -14.12          114.9         -1.073         -12.81          18.92          43.34
    0.3335              -31.33          15.87          11.37          60.29         -17.85         -14.13          115.5        -0.2618         -11.71          19.09          44.46
    0.3419              -31.24          15.72          11.66          60.11         -17.77         -14.14          116.3         0.7495         -10.34           19.3          45.87
    0.3502              -31.13          15.53          12.03          59.89         -17.67         -14.16          117.3          2.024         -8.616          19.56          47.64
